<svg width="9" height="12" viewBox="0 0 9 12" fill="none" xmlns="http://www.w3.org/2000/svg">
<path d="M4.74462 5.84225C4.72778 5.84225 4.71655 5.84225 4.69971 5.84225C4.67164 5.83662 4.63234 5.83662 4.59866 5.84225C2.97064 5.79155 1.74121 4.50704 1.74121 2.92394C1.74121 1.31268 3.04924 0 4.6548 0C6.26036 0 7.56839 1.31268 7.56839 2.92394C7.56277 4.50704 6.32773 5.79155 4.76146 5.84225C4.75585 5.84225 4.75023 5.84225 4.74462 5.84225ZM4.6548 0.84507C3.51519 0.84507 2.58329 1.78028 2.58329 2.92394C2.58329 4.0507 3.45905 4.95775 4.57621 4.99718C4.60427 4.99155 4.68287 4.99155 4.75585 4.99718C5.85616 4.94648 6.7207 4.03944 6.72631 2.92394C6.72631 1.78028 5.79441 0.84507 4.6548 0.84507Z" fill="#0F360A"/>
<path d="M4.75017 11.9999C3.64986 11.9999 2.54393 11.7183 1.70747 11.1549C0.927141 10.6366 0.500488 9.92671 0.500488 9.15488C0.500488 8.38305 0.927141 7.66755 1.70747 7.14361C3.39162 6.02248 6.11995 6.02248 7.79288 7.14361C8.56759 7.66192 8.99986 8.37178 8.99986 9.14361C8.99986 9.91544 8.5732 10.6309 7.79288 11.1549C6.9508 11.7183 5.85049 11.9999 4.75017 11.9999ZM2.17342 7.85347C1.63449 8.21403 1.34257 8.676 1.34257 9.16051C1.34257 9.63938 1.6401 10.1014 2.17342 10.4563C3.57126 11.3971 5.92908 11.3971 7.32693 10.4563C7.86586 10.0957 8.15778 9.63375 8.15778 9.14924C8.15778 8.67037 7.86025 8.2084 7.32693 7.85347C5.92908 6.91826 3.57126 6.91826 2.17342 7.85347Z" fill="#0F360A"/>
</svg>
