<svg width="18" height="18" viewBox="0 0 18 18" fill="none" xmlns="http://www.w3.org/2000/svg">
<path d="M11.4993 17.9582H6.49935C1.97435 17.9582 0.0410156 16.0248 0.0410156 11.4998V6.49984C0.0410156 1.97484 1.97435 0.0415039 6.49935 0.0415039H11.4993C16.0243 0.0415039 17.9577 1.97484 17.9577 6.49984V11.4998C17.9577 16.0248 16.0243 17.9582 11.4993 17.9582ZM6.49935 1.2915C2.65768 1.2915 1.29102 2.65817 1.29102 6.49984V11.4998C1.29102 15.3415 2.65768 16.7082 6.49935 16.7082H11.4993C15.341 16.7082 16.7077 15.3415 16.7077 11.4998V6.49984C16.7077 2.65817 15.341 1.2915 11.4993 1.2915H6.49935Z" fill="#B8EAB9"/>
<path d="M10.049 12.5663C9.89063 12.5663 9.73229 12.508 9.60729 12.383L6.66562 9.44131C6.42396 9.19964 6.42396 8.79964 6.66562 8.55798L9.60729 5.61631C9.84896 5.37464 10.249 5.37464 10.4906 5.61631C10.7323 5.85798 10.7323 6.25798 10.4906 6.49964L7.99063 8.99964L10.4906 11.4996C10.7323 11.7413 10.7323 12.1413 10.4906 12.383C10.374 12.508 10.2156 12.5663 10.049 12.5663Z" fill="#B8EAB9"/>
</svg>
