<svg width="21" height="21" viewBox="0 0 21 21" fill="none" xmlns="http://www.w3.org/2000/svg">
<g clip-path="url(#clip0_753_10453)">
<path d="M16.3333 3.9623H15.4167C15.2233 3.02181 14.7115 2.17676 13.9677 1.56957C13.2239 0.962376 12.2935 0.630179 11.3333 0.628967L9.66667 0.628967C8.7065 0.630179 7.7761 0.962376 7.03229 1.56957C6.28848 2.17676 5.77675 3.02181 5.58333 3.9623H4.66667C3.562 3.96362 2.50296 4.40304 1.72185 5.18415C0.940735 5.96527 0.501323 7.0243 0.5 8.12897L0.5 10.629H20.5V8.12897C20.4987 7.0243 20.0593 5.96527 19.2782 5.18415C18.497 4.40304 17.438 3.96362 16.3333 3.9623ZM7.32 3.9623C7.49174 3.47654 7.80936 3.05571 8.22942 2.75737C8.64948 2.45904 9.15145 2.29777 9.66667 2.29563H11.3333C11.8485 2.29777 12.3505 2.45904 12.7706 2.75737C13.1906 3.05571 13.5083 3.47654 13.68 3.9623H7.32Z" fill="white"/>
<path d="M11.3333 13.1289C11.3333 13.3499 11.2455 13.5619 11.0893 13.7181C10.933 13.8744 10.721 13.9622 10.5 13.9622C10.279 13.9622 10.067 13.8744 9.91074 13.7181C9.75446 13.5619 9.66667 13.3499 9.66667 13.1289V12.2956H0.5V16.4622C0.501323 17.5669 0.940735 18.6259 1.72185 19.407C2.50296 20.1881 3.562 20.6275 4.66667 20.6289H16.3333C17.438 20.6275 18.497 20.1881 19.2782 19.407C20.0593 18.6259 20.4987 17.5669 20.5 16.4622V12.2956H11.3333V13.1289Z" fill="white"/>
</g>
<defs>
<clipPath id="clip0_753_10453">
<rect width="20" height="20" fill="white" transform="translate(0.5 0.628967)"/>
</clipPath>
</defs>
</svg>
