<svg width="20" height="20" viewBox="0 0 20 20" fill="none" xmlns="http://www.w3.org/2000/svg">
<path d="M10 20C4.48372 20 0 15.5163 0 10C0 4.48372 4.48372 0 10 0C15.5163 0 20 4.48372 20 10C20 15.5163 15.5163 20 10 20ZM10 1.39535C5.25581 1.39535 1.39535 5.25581 1.39535 10C1.39535 14.7442 5.25581 18.6047 10 18.6047C14.7442 18.6047 18.6047 14.7442 18.6047 10C18.6047 5.25581 14.7442 1.39535 10 1.39535Z" fill="#B8EAB9"/>
<path d="M9.99943 11.628C9.61804 11.628 9.30176 11.3117 9.30176 10.9303V6.27913C9.30176 5.89773 9.61804 5.58145 9.99943 5.58145C10.3808 5.58145 10.6971 5.89773 10.6971 6.27913V10.9303C10.6971 11.3117 10.3808 11.628 9.99943 11.628Z" fill="#B8EAB9"/>
<path d="M9.99908 14.6512C9.87815 14.6512 9.75722 14.6233 9.64559 14.5768C9.53396 14.5303 9.43164 14.4652 9.33862 14.3815C9.25489 14.2884 9.18978 14.1954 9.14327 14.0745C9.09675 13.9629 9.06885 13.8419 9.06885 13.721C9.06885 13.6001 9.09675 13.4791 9.14327 13.3675C9.18978 13.2559 9.25489 13.1535 9.33862 13.0605C9.43164 12.9768 9.53396 12.9117 9.64559 12.8652C9.86885 12.7722 10.1293 12.7722 10.3526 12.8652C10.4642 12.9117 10.5665 12.9768 10.6595 13.0605C10.7433 13.1535 10.8084 13.2559 10.8549 13.3675C10.9014 13.4791 10.9293 13.6001 10.9293 13.721C10.9293 13.8419 10.9014 13.9629 10.8549 14.0745C10.8084 14.1954 10.7433 14.2884 10.6595 14.3815C10.5665 14.4652 10.4642 14.5303 10.3526 14.5768C10.2409 14.6233 10.12 14.6512 9.99908 14.6512Z" fill="#B8EAB9"/>
</svg>
