<svg width="11" height="13" viewBox="0 0 11 13" fill="none" xmlns="http://www.w3.org/2000/svg">
<path d="M4.10609 13C3.96967 13 3.86054 12.9758 3.77869 12.9456C3.50585 12.8549 3.04203 12.5587 3.04203 11.6217V7.72251H1.44594C0.531937 7.72251 0.204534 7.34166 0.0885783 7.11798C-0.0273771 6.88826 -0.129691 6.42278 0.470549 5.81221L5.63398 0.613303C6.32971 -0.0879444 6.89584 -0.0395824 7.16868 0.0510962C7.44152 0.141775 7.90534 0.437991 7.90534 1.375V5.27418H9.50143C10.4154 5.27418 10.7428 5.65503 10.8588 5.87871C10.9747 6.10843 11.0771 6.57391 10.4768 7.18448L5.31339 12.3834C4.82911 12.873 4.40621 13 4.10609 13ZM6.79353 0.903475C6.77307 0.927656 6.62983 0.988108 6.40474 1.21783L1.24131 6.41673C1.05033 6.61018 1.02304 6.73109 1.02304 6.75527C1.03668 6.76131 1.15946 6.82176 1.44594 6.82176H3.5536C3.83326 6.82176 4.06517 7.0273 4.06517 7.27516V11.6277C4.06517 11.93 4.12656 12.063 4.15384 12.0993C4.1743 12.0751 4.31754 12.0146 4.54263 11.7849L9.70606 6.586C9.89704 6.39255 9.92433 6.27165 9.92433 6.24747C9.91069 6.24142 9.78791 6.18097 9.50143 6.18097H7.39377C7.11411 6.18097 6.8822 5.97543 6.8822 5.72758V1.375C6.88902 1.07274 6.82081 0.945792 6.79353 0.903475Z" fill="#0F360A"/>
</svg>
