<svg width="22" height="20" viewBox="0 0 22 20" fill="none" xmlns="http://www.w3.org/2000/svg">
<path d="M21.1538 1.8182H0.846154C0.38359 1.8182 0 1.40607 0 0.909099C0 0.412125 0.38359 0 0.846154 0H21.1538C21.6164 0 22 0.412125 22 0.909099C22 1.40607 21.6164 1.8182 21.1538 1.8182Z" fill="#B8EAB9"/>
<path d="M21.1538 7.87862H0.846154C0.38359 7.87862 0 7.4665 0 6.96952C0 6.47255 0.38359 6.06042 0.846154 6.06042H21.1538C21.6164 6.06042 22 6.47255 22 6.96952C22 7.4665 21.6164 7.87862 21.1538 7.87862Z" fill="#B8EAB9"/>
<path d="M21.1538 13.9395H0.846154C0.38359 13.9395 0 13.5274 0 13.0304C0 12.5334 0.38359 12.1213 0.846154 12.1213H21.1538C21.6164 12.1213 22 12.5334 22 13.0304C22 13.5274 21.6164 13.9395 21.1538 13.9395Z" fill="#B8EAB9"/>
<path d="M21.1538 19.9999H0.846154C0.38359 19.9999 0 19.5878 0 19.0908C0 18.5938 0.38359 18.1817 0.846154 18.1817H21.1538C21.6164 18.1817 22 18.5938 22 19.0908C22 19.5878 21.6164 19.9999 21.1538 19.9999Z" fill="#B8EAB9"/>
</svg>
