<svg width="20" height="20" viewBox="0 0 20 20" fill="none" xmlns="http://www.w3.org/2000/svg">
<path d="M4.10781 18.8342C3.75781 18.8342 3.43281 18.7514 3.14115 18.5858C2.49948 18.2133 2.13281 17.4599 2.13281 16.5244V4.85136C2.13281 2.74856 3.85781 1.03485 5.97448 1.03485H14.0161C16.1328 1.03485 17.8578 2.74856 17.8578 4.85136V16.5161C17.8578 17.4516 17.4911 18.205 16.8495 18.5776C16.2078 18.9501 15.3661 18.9087 14.5411 18.4534L10.4745 16.2098C10.2328 16.0774 9.75781 16.0774 9.51615 16.2098L5.44948 18.4534C4.99948 18.7017 4.54115 18.8342 4.10781 18.8342ZM5.98281 2.27667C4.55781 2.27667 3.39115 3.43569 3.39115 4.85136V16.5161C3.39115 17.0046 3.53281 17.3689 3.78281 17.5096C4.03281 17.6503 4.42448 17.6089 4.84948 17.3689L8.91615 15.1253C9.53281 14.7859 10.4661 14.7859 11.0828 15.1253L15.1495 17.3689C15.5745 17.6089 15.9661 17.6586 16.2161 17.5096C16.4661 17.3606 16.6078 16.9963 16.6078 16.5161V4.85136C16.6078 3.43569 15.4411 2.27667 14.0161 2.27667H5.98281Z" fill="#B8EAB9"/>
</svg>
