<svg width="20" height="20" viewBox="0 0 20 20" fill="none" xmlns="http://www.w3.org/2000/svg">
<path d="M9.53495 19.0699C4.2791 19.0699 0 14.7908 0 9.53495C0 4.2791 4.2791 0 9.53495 0C14.7908 0 19.0699 4.2791 19.0699 9.53495C19.0699 14.7908 14.7908 19.0699 9.53495 19.0699ZM9.53495 1.39536C5.0419 1.39536 1.39536 5.0512 1.39536 9.53495C1.39536 14.0187 5.0419 17.6745 9.53495 17.6745C14.028 17.6745 17.6745 14.0187 17.6745 9.53495C17.6745 5.0512 14.028 1.39536 9.53495 1.39536Z" fill="#B8EAB9"/>
<path d="M19.3024 20C19.1257 20 18.9489 19.9349 18.8094 19.7954L16.9489 17.9349C16.6791 17.6651 16.6791 17.2186 16.9489 16.9488C17.2187 16.679 17.6652 16.679 17.935 16.9488L19.7954 18.8093C20.0652 19.0791 20.0652 19.5256 19.7954 19.7954C19.6559 19.9349 19.4792 20 19.3024 20Z" fill="#B8EAB9"/>
</svg>
