<svg width="29" height="30" viewBox="0 0 29 30" fill="none" xmlns="http://www.w3.org/2000/svg">
<path d="M24.511 27.9813H4.18576C3.69557 27.9813 3.28906 27.5748 3.28906 27.0846C3.28906 26.5944 3.69557 26.1879 4.18576 26.1879H24.511C25.0012 26.1879 25.4077 26.5944 25.4077 27.0846C25.4077 27.5748 25.0012 27.9813 24.511 27.9813Z" fill="white"/>
<path d="M22.7181 22.601C22.4909 22.601 22.2637 22.5173 22.0844 22.338L5.34598 5.59953C4.99926 5.2528 4.99926 4.67891 5.34598 4.33219C5.69271 3.98546 6.26659 3.98546 6.61332 4.33219L23.3517 21.0706C23.6985 21.4173 23.6985 21.9912 23.3517 22.338C23.1724 22.5173 22.9452 22.601 22.7181 22.601Z" fill="white"/>
<path d="M5.97873 18.1413C5.48854 18.1413 5.08203 17.7348 5.08203 17.2446V4.96579C5.08203 4.4756 5.48854 4.06909 5.97873 4.06909H18.2576C18.7478 4.06909 19.1543 4.4756 19.1543 4.96579C19.1543 5.45599 18.7478 5.86249 18.2576 5.86249H6.87543V17.2446C6.87543 17.7348 6.46893 18.1413 5.97873 18.1413Z" fill="white"/>
</svg>
