<svg width="8" height="8" viewBox="0 0 8 8" fill="none" xmlns="http://www.w3.org/2000/svg">
<path d="M4.69091 0.577681L5.39683 1.99734C5.49196 2.19368 5.7473 2.37995 5.96258 2.42022L7.23927 2.63166C8.05535 2.76758 8.2456 3.36163 7.65982 3.95567L6.6635 4.95749C6.49828 5.12362 6.40317 5.45084 6.45824 5.68745L6.74361 6.92588C6.9689 7.90253 6.44822 8.28513 5.5921 7.77164L4.39551 7.05677C4.18023 6.92588 3.81976 6.92588 3.60447 7.05677L2.40789 7.77164C1.55176 8.2801 1.03108 7.90253 1.25638 6.92588L1.54176 5.68745C1.59683 5.45588 1.5017 5.12865 1.33648 4.95749L0.340176 3.95567C-0.245596 3.36666 -0.0553473 2.77262 0.760729 2.63166L2.03741 2.42022C2.25269 2.38498 2.50803 2.19368 2.60315 1.99734L3.30909 0.577681C3.68458 -0.19256 4.30541 -0.19256 4.69091 0.577681Z" fill="#FFB622"/>
</svg>
